<svg width="220" height="48" viewBox="0 0 220 48" fill="none" xmlns="http://www.w3.org/2000/svg" role="img" aria-label="AutoPilot CRM">
  <defs>
    <linearGradient id="apLockup" x1="2" y1="2" x2="46" y2="46" gradientUnits="userSpaceOnUse">
      <stop stop-color="#34D399"></stop>
      <stop offset="1" stop-color="#059669"></stop>
    </linearGradient>
  </defs>
  <rect x="2" y="2" width="44" height="44" rx="13" fill="url(#apLockup)"></rect>
  <path d="M24 11L35 35.5C35.25 36.1 34.65 36.7 34.05 36.45L24.35 32.2C24.13 32.1 23.87 32.1 23.65 32.2L13.95 36.45C13.35 36.7 12.75 36.1 13 35.5L24 11Z" fill="white"></path>
  <path d="M24 11L35 35.5C35.25 36.1 34.65 36.7 34.05 36.45L24.35 32.2C24.13 32.1 24 31.9 24 31.65V11Z" fill="white" fill-opacity="0.78"></path>
  <text x="58" y="31" font-family="&#39;Plus Jakarta Sans&#39;, sans-serif" font-size="22" font-weight="800" letter-spacing="-0.5" fill="#0A2540">AutoPilot</text>
  <text x="186" y="31" font-family="&#39;Plus Jakarta Sans&#39;, sans-serif" font-size="22" font-weight="600" letter-spacing="-0.3" fill="#059669">CRM</text>
</svg>