<svg width="56" height="56" viewBox="0 0 56 56" fill="none" xmlns="http://www.w3.org/2000/svg" role="img" aria-label="AutoPilot CRM">
  <defs>
    <linearGradient id="apMark" x1="6" y1="6" x2="50" y2="50" gradientUnits="userSpaceOnUse">
      <stop stop-color="#34D399"></stop>
      <stop offset="1" stop-color="#059669"></stop>
    </linearGradient>
  </defs>
  <rect x="2" y="2" width="52" height="52" rx="15" fill="url(#apMark)"></rect>
  <rect x="2" y="2" width="52" height="52" rx="15" fill="white" fill-opacity="0.0"></rect>
  <path d="M28 13L41 41.5C41.3 42.2 40.6 42.9 39.9 42.6L28.4 37.6C28.15 37.49 27.85 37.49 27.6 37.6L16.1 42.6C15.4 42.9 14.7 42.2 15 41.5L28 13Z" fill="white"></path>
  <path d="M28 13L41 41.5C41.3 42.2 40.6 42.9 39.9 42.6L28.4 37.6C28.15 37.49 28 37.25 28 37V13Z" fill="white" fill-opacity="0.78"></path>
</svg>